<?xml version="1.0" encoding="utf-8"?>
<!-- Generator: Adobe Illustrator 24.1.1, SVG Export Plug-In . SVG Version: 6.00 Build 0)  -->
<svg version="1.1" id="Capa_1" xmlns="http://www.w3.org/2000/svg" xmlns:xlink="http://www.w3.org/1999/xlink" x="0px" y="0px"
	 viewBox="0 0 100 101.9" style="enable-background:new 0 0 100 101.9;" xml:space="preserve">
<style type="text/css">
	.st0{fill:#6D6D6D;}
</style>
<g>
	<path class="st0" d="M90,10c-4.7-4.7-12.3-4.7-17,0L50,33L27,10c-4.7-4.7-12.3-4.7-17,0s-4.7,12.3,0,17l23,23L10,73
		c-4.7,4.7-4.7,12.3,0,17c2.3,2.3,5.4,3.5,8.5,3.5s6.1-1.2,8.5-3.5l23-23l23,23c2.3,2.3,5.4,3.5,8.5,3.5s6.1-1.2,8.5-3.5
		c4.7-4.7,4.7-12.3,0-17L67,50l23-23C94.7,22.3,94.7,14.7,90,10z"/>
</g>
</svg>
