<?xml version="1.0" encoding="utf-8"?>
<!-- Generator: Adobe Illustrator 24.1.1, SVG Export Plug-In . SVG Version: 6.00 Build 0)  -->
<svg version="1.1" id="Capa_1" xmlns="http://www.w3.org/2000/svg" xmlns:xlink="http://www.w3.org/1999/xlink" x="0px" y="0px"
	 viewBox="0 0 105.8 102.5" style="enable-background:new 0 0 105.8 102.5;" xml:space="preserve">
<style type="text/css">
	.st0{fill-rule:evenodd;clip-rule:evenodd;fill:#FA5D15;}
</style>
<g>
	<path class="st0" d="M29.1,63c7.2-2,13.1-2.1,23.6,4.8l14-3c2.2-0.5,3.4,0.2,4.1,1.2c0.5,0.6,0.7,1.4,0.5,2.2
		c-0.2,0.8-0.6,1.4-1.4,1.8l-15,7.6c-1.4,0.9-0.4,2.3,0.7,1.8l17.2-8.7c0.7-0.4,1.3-0.9,1.6-1.6c0.4-0.8,1-1.4,1.7-2l14-9.8
		c3.6-2.5,6.3,1,5.2,2.2L78.2,76.8L60,86.2c-2.4,1.3-4.8,1.7-7.5,1.4L29.3,85c-0.9-0.1-1.6-0.8-1.6-1.7V64.7
		C27.8,63.9,28.3,63.2,29.1,63L29.1,63z M75.7,46.4l-13.3,4.4c-0.2,0-0.4,0-0.5-0.1s-0.2-0.3-0.1-0.5c2.8-8,13.1-9.3,20.3-6.5
		c-2.7,7.2-10.6,14-18.4,10.7c-0.2-0.1-0.3-0.2-0.3-0.4s0.1-0.3,0.2-0.4l12.2-7c0,0,0.1-0.1,0-0.1C75.8,46.4,75.7,46.4,75.7,46.4z
		 M55.8,14.6c5.8,0,10.5,4.7,10.5,10.5s-4.7,10.5-10.5,10.5S45.3,31,45.3,25.1C45.3,19.3,50,14.6,55.8,14.6z M52,22.5
		c0-1.8,1.2-3,2.7-3.5c0.1,0,0.1-0.1,0.1-0.2v-1.4c0-0.2,0.1-0.3,0.3-0.3h1.3c0.2,0,0.3,0.1,0.3,0.3v1.3c0,0.1,0.1,0.1,0.1,0.2
		c0.3,0.1,0.6,0.2,0.9,0.3c0.9,0.5,1.6,1.4,1.8,2.6c0,0.1,0,0.2-0.1,0.3c-0.1,0.1-0.2,0.1-0.3,0.1h-1.2c-0.1,0-0.3-0.1-0.3-0.2
		c-0.5-1.7-3.7-1.9-3.7,0.2c0,1,1,1.4,2.2,1.9c1.6,0.6,3.4,1.2,3.4,3.5c0,1.8-1.2,3-2.7,3.5c-0.1,0-0.1,0.1-0.1,0.2v1.4
		c0,0.2-0.1,0.3-0.3,0.3h-1.3c-0.2,0-0.3-0.1-0.3-0.3v-1.3c0-0.1-0.1-0.1-0.1-0.2c-0.3-0.1-0.6-0.2-0.9-0.3
		c-0.9-0.5-1.6-1.4-1.8-2.6c0-0.1,0-0.2,0.1-0.3c0.1-0.1,0.2-0.1,0.3-0.1h1.2c0.1,0,0.3,0.1,0.3,0.2c0.5,1.7,3.7,1.9,3.7-0.2
		c0-1.1-1.2-1.5-2.5-2C53.6,25.4,52,24.7,52,22.5L52,22.5z M31.7,12.4L31.7,12.4c0,2.2-1.8,4-4,4v14.5c2.2,0,4,1.8,4,4h10
		c2.5,0,4.6,0.6,6.8,1.8c2.2,1.3,4.8,2,7.6,2s5.4-0.7,7.6-2s4.3-1.8,6.8-1.8h10c0-2.2,1.8-4,4-4V16.4c-2.2,0-4-1.8-4-4
		C36.3,12.4,65.2,12.4,31.7,12.4z M84.9,9H27.1c-0.6,0-1.2,0.3-1.6,0.7l0,0c-0.4,0.4-0.7,1-0.7,1.6V36c0,0.6,0.3,1.2,0.7,1.6l0,0
		c0.4,0.4,1,0.7,1.6,0.7H42c12.4,0,11.6,10.6,11.2,18.5l-10.4,4c0,0,5.9,0.8,10.4,4.5c6-2.5,15.8-2.9,18.6-2.8l-13.3-4.8
		c-0.7-8.7,0.3-19.4,11.7-19.4h14.6c0.6,0,1.2-0.3,1.6-0.7l0,0c0.4-0.4,0.7-1,0.7-1.6V11.3c0-0.6-0.3-1.2-0.7-1.6l0,0
		C86.1,9.3,85.6,9,84.9,9z M36.7,21.6c1.1,0,2.1,0.9,2.1,2.1c0,1.1-0.9,2.1-2.1,2.1c-1.1,0-2.1-0.9-2.1-2.1
		C34.7,22.5,35.6,21.6,36.7,21.6z M75.3,21.6c1.1,0,2.1,0.9,2.1,2.1c0,1.1-0.9,2.1-2.1,2.1c-1.1,0-2.1-0.9-2.1-2.1
		C73.3,22.5,74.2,21.6,75.3,21.6z M35.9,45.7l14.6,6.9c0.2,0.1,0.4,0.1,0.5-0.1c0.2-0.1,0.2-0.3,0.2-0.5
		c-2.1-9.6-13.8-12.5-22.4-10.3c2.1,8.6,10.2,17.5,19.7,14.9c0.2-0.1,0.3-0.2,0.4-0.4c0.1-0.2,0-0.4-0.2-0.5l-13-9.7
		c-0.1-0.1-0.1-0.1,0-0.2S35.8,45.7,35.9,45.7L35.9,45.7z M18.3,63.1h5.6c1,0,1.7,0.8,1.7,1.8v19.6c0,1.9-1.6,3.5-3.5,3.5h-3.9
		c-1,0-1.8-0.8-1.8-1.7V64.9C16.5,63.9,17.3,63.1,18.3,63.1z"/>
</g>
</svg>
