<?xml version="1.0" encoding="utf-8"?>
<!-- Generator: Adobe Illustrator 22.1.0, SVG Export Plug-In . SVG Version: 6.00 Build 0)  -->
<svg version="1.1" id="Layer_1" xmlns="http://www.w3.org/2000/svg" xmlns:xlink="http://www.w3.org/1999/xlink" x="0px" y="0px"
	 viewBox="0 0 82.7 82.7" style="enable-background:new 0 0 82.7 82.7;" xml:space="preserve">
<style type="text/css">
	.st0{fill:#A5A5A5;}
</style>
<title>Artboard 25</title>
<path class="st0" d="M44.4,55.3V33.6l6.9,6.9l4.2-4.2l-12-12c-1.2-1.2-3.1-1.2-4.2,0l-12,12l4.2,4.2l6.9-6.9v21.8H44.4z"/>
<path class="st0" d="M71.4,21.3c0-6.1-4.9-11-11-11h-8v6h8c2.8,0,5,2.2,5,5v8h6V21.3z"/>
<path class="st0" d="M11.4,29.3h6v-8c0-2.8,2.2-5,5-5h8v-6h-8c-6.1,0-11,4.9-11,11l0,0V29.3z"/>
<path class="st0" d="M11.4,59.3c0,6.1,4.9,11,11,11h8v-6h-8c-2.8,0-5-2.2-5-5v-8h-6V59.3z"/>
<path class="st0" d="M71.4,51.3h-6v8c0,2.8-2.2,5-5,5h-8v6h8c6.1,0,11-4.9,11-11V51.3z"/>
</svg>
