<?xml version="1.0" encoding="utf-8"?>
<!-- Generator: Adobe Illustrator 24.1.1, SVG Export Plug-In . SVG Version: 6.00 Build 0)  -->
<svg version="1.1" id="Capa_1" xmlns="http://www.w3.org/2000/svg" xmlns:xlink="http://www.w3.org/1999/xlink" x="0px" y="0px"
	 viewBox="0 0 100 96.3" style="enable-background:new 0 0 100 96.3;" xml:space="preserve">
<style type="text/css">
	.st0{fill:#AFAFAF;}
</style>
<path class="st0" d="M50,88.8c-23.1-0.1-41.5-19-40.8-42.1C9.8,24.7,27.9,7,50.3,7.2c22.6,0.2,40.7,18.6,40.5,41.2
	C90.6,70.8,72.2,89.1,50,88.8z M50.9,42.2c-4.1,0.1-7.8,1.6-11.3,3.8c-0.3,0.2-0.6,0.4-0.8,0.7c-0.8,1-0.5,1.8,0.7,2.1
	c0.5,0.1,0.9,0.2,1.4,0.3c1.9,0.6,2.4,1.5,1.9,3.5c-1.2,4.7-2.3,9.5-3.5,14.2c-0.8,3.5,0.9,6.4,4.3,6.7c5,0.4,9.5-1.3,13.5-4.2
	c0.4-0.3,0.8-1.1,0.7-1.6c0-0.3-0.8-0.6-1.3-0.8c-0.2-0.1-0.4-0.1-0.7-0.2c-2.2-0.6-2.8-1.5-2.3-3.8c1.1-4.6,2.3-9.2,3.4-13.9
	c0.2-1.1,0.3-2.4,0-3.4C56.2,43.2,54.1,42.1,50.9,42.2z M61.2,28c0-4.3-3.3-7.6-7.5-7.7c-4.3,0-7.7,3.4-7.7,7.6
	c0,4.2,3.4,7.5,7.6,7.5C57.8,35.5,61.2,32.2,61.2,28z"/>
</svg>
