<?xml version="1.0" encoding="utf-8"?>
<!-- Generator: Adobe Illustrator 24.1.1, SVG Export Plug-In . SVG Version: 6.00 Build 0)  -->
<svg version="1.1" id="Capa_1" xmlns="http://www.w3.org/2000/svg" xmlns:xlink="http://www.w3.org/1999/xlink" x="0px" y="0px"
	 viewBox="0 0 105.8 102.5" style="enable-background:new 0 0 105.8 102.5;" xml:space="preserve">
<style type="text/css">
	.st0{fill:#090E45;}
</style>
<g>
	<path class="st0" d="M36,93.6c7.4,0,13.8-4.2,17-10.3c0.7,0,1.4,0.1,2.1,0.1c0.3,0,0.7,0,1,0c0.4,0,0.7,0,1.1,0c0.2,0,0.3,0,0.5,0
		h0.1l1-0.1c0.3,0,0.5,0,0.9-0.1c9.3-0.9,15.4-4.1,15.7-8.3c0-0.1,0.4-2,0.4-4c0-1.6-0.2-3.1-0.3-3.8c0.3-1.7,0.3-3,0.3-3.8
		s-0.1-2.1-0.3-3.7c0.3-1.7,0.3-3,0.3-3.7c0-1.6-0.2-3.2-0.3-3.7c0.1-0.6,0.3-2.1,0.3-3.7c0-1.6-0.2-3.1-0.3-3.7
		c0.1-0.6,0.3-2.1,0.3-3.7c0-1.7-0.3-3.3-0.3-3.9c-0.1-5.7-10.5-8.8-20.4-8.8s-20.3,3.1-20.4,8.9c-0.1,0.6-0.3,2.1-0.3,3.8
		c0,1.6,0.2,3.1,0.3,3.7c-0.1,0.6-0.3,2.1-0.3,3.7c0,1.6,0.2,3.1,0.3,3.7c-0.1,0.6-0.3,2-0.3,3.5c-9.8,0.8-17.5,9-17.5,19
		C16.9,85,25.5,93.6,36,93.6z M67.8,57.5c-0.2-0.8-1.1-1.2-1.8-1c-3.2,0.9-6.9,1.4-10.9,1.4c-6.4,0-12.3-1.3-15.5-3.4l0,0
		c-0.8-0.6-1.8-1.4-1.9-2.5l0,0l0,0l0,0c0-0.1,0-0.1,0-0.1v-0.1l0,0v-0.1c-0.1-0.3-0.2-1.4-0.3-2.6c0.2,0.1,0.3,0.3,0.5,0.4
		c0.3,0.2,0.5,0.3,0.8,0.3c0.5,0,0.9-0.2,1.2-0.6c0.5-0.7,0.3-1.6-0.4-2.1s-1.8-1.4-1.9-2.4l0,0c0-0.1,0-0.1,0-0.2v-0.1
		c0,0-0.2-1.3-0.3-2.7C41,44.5,48.2,46,55,46s14-1.5,17.7-4.3c-0.1,1.4-0.3,2.7-0.3,2.7s0,0,0,0.1v0.1v0.1c0,0.8-0.7,1.7-1.9,2.5
		c-3.1,2.1-9.1,3.4-15.5,3.4c-4.5,0-8.7-0.6-12-1.8c-0.8-0.3-1.6,0.1-1.9,0.9c-0.3,0.8,0.1,1.6,0.9,1.9c3.6,1.3,8.2,1.9,13,1.9
		c7.1,0,13.5-1.5,17.1-3.9c0.2-0.1,0.4-0.3,0.6-0.4c-0.1,1.2-0.2,2.3-0.3,2.6v0.1l0,0l0,0c0,0.1,0,0.1,0,0.2l0,0l0,0
		c0,0.8-0.7,1.7-1.9,2.5c-0.2,0.2-0.5,0.3-0.7,0.5c-0.7,0.4-1,1.3-0.6,2c0.3,0.5,0.8,0.8,1.3,0.8c0.2,0,0.5-0.1,0.7-0.2
		c0.3-0.2,0.6-0.4,0.9-0.6c0,0,0.1,0,0.1-0.1c0.2-0.1,0.4-0.3,0.5-0.4c0,0.7-0.1,1.6-0.3,2.7l0,0c0,0.1,0,0.2,0,0.3l0,0
		c0,0.8-0.7,1.6-1.8,2.4c0,0-0.1,0-0.1,0.1c-3.1,2.1-9.1,3.4-15.5,3.4c-0.8,0-1.6,0-2.3-0.1c-1-1.8-2.3-3.4-3.8-4.8
		c1.9,0.3,4,0.4,6.1,0.4c4.3,0,8.3-0.5,11.7-1.5C67.6,59.1,68.1,58.2,67.8,57.5z M59.3,80.1c-0.2,0-0.5,0-0.7,0.1l-1,0.1h-0.1
		c-0.2,0-0.3,0-0.5,0c-0.3,0-0.6,0-1,0c-0.3,0-0.6,0-0.9,0c-0.3,0-0.6,0-0.9,0c0.5-1.4,0.7-2.9,0.9-4.5l0,0c0.8,0,1.5,0,2.3-0.1
		c0.8,0,1.4-0.7,1.4-1.5s-0.7-1.4-1.5-1.4c-0.7,0-1.4,0-2.2,0c-0.1-1.6-0.5-3.1-1-4.5c0.3,0,0.6,0,1,0c7,0,13.4-1.4,17-3.9
		c0,0,0.1,0,0.1-0.1c0,0,0,0,0.1,0c0.2-0.1,0.4-0.3,0.6-0.4c0,0.7-0.1,1.6-0.3,2.7c0,0.1,0,0.2,0,0.3l0,0c0,1.1-1.2,2-1.9,2.5
		c0,0,0,0-0.1,0.1l0,0c-1.9,1.3-4.9,2.3-8.5,2.8c-0.8,0.1-1.4,0.9-1.2,1.7c0.1,0.7,0.7,1.2,1.5,1.2c0.1,0,0.2,0,0.2,0
		c4-0.6,7.4-1.8,9.7-3.3l0.1-0.1c0.2-0.1,0.4-0.3,0.6-0.4c-0.1,1.5-0.3,2.8-0.3,2.8c0,0.1,0,0.1,0,0.2l0,0
		C72.4,76.6,67.5,79.4,59.3,80.1z M55.1,31c10.8,0,17.4,3.4,17.4,5.9c0,0,0,0,0,0.1c-0.1,2.5-6.7,5.9-17.4,5.9S37.8,39.5,37.7,37
		v-0.1C37.8,34.5,44.4,31,55.1,31z M36,58.3c8.9,0,16.1,7.2,16.1,16.1S44.9,90.6,36,90.6s-16.1-7.2-16.1-16.1S27.1,58.3,36,58.3z"/>
	<path class="st0" d="M35.9,75.9L35.9,75.9c0.8,0,1.5,0.3,1.9,0.9c0.4,0.6,0.5,1.3,0.3,2s-0.9,1.3-1.6,1.5c-0.1,0-0.3,0.1-0.5,0.1
		c-1,0-1.8-0.6-2.1-1.5c-0.2-0.6-0.7-1-1.4-1c-0.5,0-0.9,0.2-1.2,0.6c-0.3,0.4-0.6,0.8-0.4,1.3c0.5,1.4,1.9,2.7,3.1,3.3h0.1v1.6
		c0,0.8,1.1,1.5,1.9,1.5c0.9,0,1.9-0.7,1.9-1.5V83H38c1-0.5,2.4-1.6,3-2.9c0.6-1.5,0.4-3.4-0.5-5.1c-0.8-1.4-2.5-2.3-4.3-2.3H36
		c-0.9,0-1.5-0.3-1.8-0.8c-0.4-0.6-0.5-1.3-0.2-2c0.3-0.6,0.8-1.1,1.5-1.2c0.2,0,0.3,0,0.5,0c1,0,1.8,0.6,2.1,1.5
		c0.2,0.6,0.7,1,1.4,1c0.5,0,0.9-0.2,1.2-0.6c0.2-0.3,0.6-0.8,0.4-1.3C40.6,67.6,39,66.4,38,66h-0.1v-1.7c0-0.8-1.1-1.4-1.9-1.4
		c-0.9,0-1.9,0.7-1.9,1.4V66H34c-1,0.5-2.4,1.6-3,2.9c-0.6,1.6-0.4,3.3,0.7,5C32.5,75.2,34.1,75.9,35.9,75.9z"/>
	<path class="st0" d="M18.6,44.4h10.2c0.8,0,1.5-0.7,1.5-1.5s-0.7-1.5-1.5-1.5H18.6c-0.8,0-1.5,0.7-1.5,1.5
		C17.2,43.7,17.8,44.4,18.6,44.4z"/>
	<path class="st0" d="M79.8,42.9c0,0.8,0.7,1.5,1.5,1.5h10.2c0.8,0,1.5-0.7,1.5-1.5s-0.7-1.5-1.5-1.5H81.3
		C80.5,41.4,79.8,42.1,79.8,42.9z"/>
	<path class="st0" d="M28.3,16.1c-0.6,0.6-0.6,1.5,0,2.1l7.2,7.2c0.3,0.3,0.7,0.4,1,0.4s0.8-0.1,1-0.4c0.6-0.6,0.6-1.5,0-2.1
		l-7.2-7.2C29.8,15.5,28.8,15.5,28.3,16.1z"/>
	<path class="st0" d="M53.6,6.5v10.2c0,0.8,0.7,1.5,1.5,1.5s1.5-0.7,1.5-1.5V6.5c0-0.8-0.7-1.5-1.5-1.5S53.6,5.6,53.6,6.5z"/>
	<path class="st0" d="M81.9,16.1c-0.6-0.6-1.5-0.6-2.1,0l-7.2,7.2c-0.6,0.6-0.6,1.5,0,2.1c0.3,0.3,0.7,0.4,1,0.4s0.8-0.1,1-0.4
		l7.2-7.2C82.5,17.6,82.5,16.7,81.9,16.1z"/>
</g>
</svg>
