<?xml version="1.0" encoding="utf-8"?>
<!-- Generator: Adobe Illustrator 24.1.1, SVG Export Plug-In . SVG Version: 6.00 Build 0)  -->
<svg version="1.1" id="Capa_1" xmlns="http://www.w3.org/2000/svg" xmlns:xlink="http://www.w3.org/1999/xlink" x="0px" y="0px"
	 viewBox="0 0 105.8 102.5" style="enable-background:new 0 0 105.8 102.5;" xml:space="preserve">
<style type="text/css">
	.st0{fill:#090E45;}
</style>
<g>
	<path class="st0" d="M93.4,86h-2.3V47.9h1.1c0.6,0,1-0.4,1-1v-6.6c0-0.6-0.4-1-1-1H91v-3.2h1.2c0.6,0,1-0.4,1-1s-0.4-1-1-1H65.8
		V17.3h1.1c0.6,0,1-0.4,1-1v-5.4c0-0.6-0.4-1-1-1h-25c-0.6,0-1,0.4-1,1v5.4c0,0.6,0.4,1,1,1h0.6v1.3h-6.9v-3.1c0-0.6-0.4-1-1-1h-6.3
		c-0.6,0-1,0.4-1,1v3.1h-8.4c-0.6,0-1,0.4-1,1v6.6c0,0.6,0.4,1,1,1h1V86H18c-0.6,0-1,0.4-1,1s0.4,1,1,1h75.4c0.6,0,1-0.4,1-1
		S94,86,93.4,86z M91.3,41.2v4.6H63.7v-4.6H91.3z M85.9,36.2h3.2v3.2h-3.2V36.2z M81,36.2h3.1v3.2H81V36.2z M76,36.2h3v3.2h-3V36.2z
		 M71,36.2h3.1v3.2H71V36.2z M69,36.2v3.2h-3.2v-3.2H69z M42.9,11.9h22.9v3.5H42.9V11.9z M29.3,16.5h4.3v2.1h-4.3V16.5z M19.9,25.3
		v-4.6h27.6v4.6H19.9z M21.9,62.8h3v3.6h-3V62.8z M28.7,79.4c-1,0-1.8-0.8-1.8-1.8V74c0-1,0.8-1.8,1.8-1.8h0.6c1,0,1.8,0.8,1.8,1.8
		v3.6c0,1-0.8,1.8-1.8,1.8H28.7z M45.4,86H40v-3c1.8-0.5,3.2-2.1,3.2-4v-2.4c0-2.3-1.9-4.2-4.2-4.2s-4.2,1.9-4.2,4.2V79
		c0,1.9,1.3,3.6,3.2,4v3h-8v-4.7c1.8-0.3,3.1-1.9,3.1-3.7V74c0-2.1-1.7-3.8-3.8-3.8h-0.6c-2.1,0-3.8,1.7-3.8,3.8v3.6
		c0,1.9,1.4,3.4,3.1,3.7V86h-6.1V68.3h23.5V86z M39,81.2c-1.2,0-2.2-1-2.2-2.2v-2.4c0-1.2,1-2.2,2.2-2.2s2.2,1,2.2,2.2V79
		C41.1,80.3,40.2,81.2,39,81.2z M26.8,66.4v-3.6H30v3.6H26.8z M32,66.4v-3.6h3.2v3.6H32z M35.3,60.8v-6.3h4.9v6.3H35.3z M40.3,62.8
		v3.6h-3.2v-3.6C37.1,62.8,40.3,62.8,40.3,62.8z M45.4,66.4h-3.2v-3.6h3.2V66.4z M45.4,60.8h-3.2v-7.3c0-0.6-0.4-1-1-1h-6.9
		c-0.6,0-1,0.4-1,1v7.3H21.9V27.2h23.5V60.8z M57.8,86H53v-8.8h4.8V86z M63.8,86h-4.1v-9.8c0-0.6-0.4-1-1-1h-6.8c-0.6,0-1,0.4-1,1
		V86h-3.6V27.3h1.1c0.6,0,1-0.4,1-1v-6.6c0-0.6-0.4-1-1-1h-3.9v-1.3h19.3v16.8h-1.1c-0.6,0-1,0.4-1,1s0.4,1,1,1h1.1v3.2h-1.1
		c-0.6,0-1,0.4-1,1V47c0,0.6,0.4,1,1,1h1.1V86L63.8,86z M89.3,86h-3.9v-3c1.8-0.5,3.2-2.1,3.2-4v-2.4c0-2.3-1.9-4.2-4.2-4.2
		s-4.2,1.9-4.2,4.2V79c0,1.9,1.3,3.6,3.2,4v3H65.8V47.9h23.5V86z M84.4,81.2c-1.2,0-2.2-1-2.2-2.2v-2.4c0-1.2,1-2.2,2.2-2.2
		s2.2,1,2.2,2.2V79C86.5,80.3,85.5,81.2,84.4,81.2z"/>
	<path class="st0" d="M26.8,48.6c0.6,0,1-0.4,1-1v-4.2c0-0.6-0.4-1-1-1s-1,0.4-1,1v4.2C25.8,48.1,26.2,48.6,26.8,48.6z"/>
	<path class="st0" d="M26.8,59.5c0.6,0,1-0.4,1-1v-4.2c0-0.6-0.4-1-1-1s-1,0.4-1,1v4.2C25.8,59,26.2,59.5,26.8,59.5z"/>
	<path class="st0" d="M33.6,48.6c0.6,0,1-0.4,1-1v-4.2c0-0.6-0.4-1-1-1s-1,0.4-1,1v4.2C32.7,48.1,33,48.6,33.6,48.6z"/>
	<path class="st0" d="M40.5,48.6c0.6,0,1-0.4,1-1v-4.2c0-0.6-0.4-1-1-1s-1,0.4-1,1v4.2C39.5,48.1,40,48.6,40.5,48.6z"/>
	<path class="st0" d="M26.8,37.7c0.6,0,1-0.4,1-1v-4.2c0-0.6-0.4-1-1-1s-1,0.4-1,1v4.2C25.8,37.2,26.2,37.7,26.8,37.7z"/>
	<path class="st0" d="M33.6,37.7c0.6,0,1-0.4,1-1v-4.2c0-0.6-0.4-1-1-1s-1,0.4-1,1v4.2C32.7,37.2,33,37.7,33.6,37.7z"/>
	<path class="st0" d="M40.5,37.7c0.6,0,1-0.4,1-1v-4.2c0-0.6-0.4-1-1-1s-1,0.4-1,1v4.2C39.5,37.2,40,37.7,40.5,37.7z"/>
	<path class="st0" d="M58.9,42.4c-0.6,0-1,0.4-1,1v4.2c0,0.6,0.4,1,1,1s1-0.4,1-1v-4.2C59.8,42.8,59.3,42.4,58.9,42.4z"/>
	<path class="st0" d="M58.9,31.6c-0.6,0-1,0.4-1,1v4.2c0,0.6,0.4,1,1,1s1-0.4,1-1v-4.2C59.8,32,59.3,31.6,58.9,31.6z"/>
	<path class="st0" d="M58.9,53.4c-0.6,0-1,0.4-1,1v4.2c0,0.6,0.4,1,1,1s1-0.4,1-1v-4.2C59.8,53.8,59.3,53.4,58.9,53.4z"/>
	<path class="st0" d="M58.9,64.3c-0.6,0-1,0.4-1,1v4.2c0,0.6,0.4,1,1,1s1-0.4,1-1v-4.2C59.8,64.8,59.3,64.3,58.9,64.3z"/>
	<path class="st0" d="M52.6,42.4c-0.6,0-1,0.4-1,1v4.2c0,0.6,0.4,1,1,1s1-0.4,1-1v-4.2C53.6,42.8,53.1,42.4,52.6,42.4z"/>
	<path class="st0" d="M52.6,31.6c-0.6,0-1,0.4-1,1v4.2c0,0.6,0.4,1,1,1s1-0.4,1-1v-4.2C53.6,32,53.1,31.6,52.6,31.6z"/>
	<path class="st0" d="M58.9,20.6c-0.6,0-1,0.4-1,1v4.2c0,0.6,0.4,1,1,1s1-0.4,1-1v-4.2C59.8,21.1,59.3,20.6,58.9,20.6z"/>
	<path class="st0" d="M52.6,20.6c-0.6,0-1,0.4-1,1v4.2c0,0.6,0.4,1,1,1s1-0.4,1-1v-4.2C53.6,21.1,53.1,20.6,52.6,20.6z"/>
	<path class="st0" d="M52.6,53.4c-0.6,0-1,0.4-1,1v4.2c0,0.6,0.4,1,1,1s1-0.4,1-1v-4.2C53.6,53.8,53.1,53.4,52.6,53.4z"/>
	<path class="st0" d="M52.6,64.3c-0.6,0-1,0.4-1,1v4.2c0,0.6,0.4,1,1,1s1-0.4,1-1v-4.2C53.6,64.8,53.1,64.3,52.6,64.3z"/>
	<path class="st0" d="M70.6,59.5c0.6,0,1-0.4,1-1v-4.2c0-0.6-0.4-1-1-1s-1,0.4-1,1v4.2C69.6,59,70.1,59.5,70.6,59.5z"/>
	<path class="st0" d="M77.5,59.5c0.6,0,1-0.4,1-1v-4.2c0-0.6-0.4-1-1-1s-1,0.4-1,1v4.2C76.5,59,76.9,59.5,77.5,59.5z"/>
	<path class="st0" d="M84.4,59.5c0.6,0,1-0.4,1-1v-4.2c0-0.6-0.4-1-1-1s-1,0.4-1,1v4.2C83.4,59,83.9,59.5,84.4,59.5z"/>
	<path class="st0" d="M70.6,70.4c0.6,0,1-0.4,1-1v-4.2c0-0.6-0.4-1-1-1s-1,0.4-1,1v4.2C69.6,70,70.1,70.4,70.6,70.4z"/>
	<path class="st0" d="M77.5,70.4c0.6,0,1-0.4,1-1v-4.2c0-0.6-0.4-1-1-1s-1,0.4-1,1v4.2C76.5,70,76.9,70.4,77.5,70.4z"/>
	<path class="st0" d="M77.5,81.4c0.6,0,1-0.4,1-1v-4.2c0-0.6-0.4-1-1-1s-1,0.4-1,1v4.2C76.5,81,76.9,81.4,77.5,81.4z"/>
	<path class="st0" d="M84.4,70.4c0.6,0,1-0.4,1-1v-4.2c0-0.6-0.4-1-1-1s-1,0.4-1,1v4.2C83.4,70,83.9,70.4,84.4,70.4z"/>
	<path class="st0" d="M70.6,81.4c0.6,0,1-0.4,1-1v-4.2c0-0.6-0.4-1-1-1s-1,0.4-1,1v4.2C69.6,81,70.1,81.4,70.6,81.4z"/>
</g>
</svg>
