<?xml version="1.0" encoding="utf-8"?>
<!-- Generator: Adobe Illustrator 24.1.1, SVG Export Plug-In . SVG Version: 6.00 Build 0)  -->
<svg version="1.1" id="Capa_1" xmlns="http://www.w3.org/2000/svg" xmlns:xlink="http://www.w3.org/1999/xlink" x="0px" y="0px"
	 viewBox="0 0 105.8 102.5" style="enable-background:new 0 0 105.8 102.5;" xml:space="preserve">
<style type="text/css">
	.st0{fill:#FA5D15;}
</style>
<g>
	<path class="st0" d="M91.4,87h-2.3V48.9h1.1c0.6,0,1-0.4,1-1v-6.6c0-0.6-0.4-1-1-1H89v-3.2h1.2c0.6,0,1-0.4,1-1s-0.4-1-1-1H63.8
		V18.3h1.1c0.6,0,1-0.4,1-1v-5.4c0-0.6-0.4-1-1-1h-25c-0.6,0-1,0.4-1,1v5.4c0,0.6,0.4,1,1,1h0.6v1.3h-6.9v-3.1c0-0.6-0.4-1-1-1h-6.3
		c-0.6,0-1,0.4-1,1v3.1h-8.4c-0.6,0-1,0.4-1,1v6.6c0,0.6,0.4,1,1,1h1V87H16c-0.6,0-1,0.4-1,1s0.4,1,1,1h75.4c0.6,0,1-0.4,1-1
		S92,87,91.4,87z M89.3,42.2v4.6H61.7v-4.6H89.3z M83.9,37.2h3.2v3.2h-3.2V37.2z M79,37.2h3.1v3.2H79V37.2z M74,37.2h3v3.2h-3V37.2z
		 M69,37.2h3.1v3.2H69V37.2z M67,37.2v3.2h-3.2v-3.2H67z M40.9,12.9h22.9v3.5H40.9V12.9z M27.3,17.5h4.3v2.1h-4.3V17.5z M17.9,26.3
		v-4.6h27.6v4.6H17.9z M19.9,63.8h3v3.6h-3V63.8z M26.7,80.4c-1,0-1.8-0.8-1.8-1.8V75c0-1,0.8-1.8,1.8-1.8h0.6c1,0,1.8,0.8,1.8,1.8
		v3.6c0,1-0.8,1.8-1.8,1.8H26.7z M43.4,87H38v-3c1.8-0.5,3.2-2.1,3.2-4v-2.4c0-2.3-1.9-4.2-4.2-4.2s-4.2,1.9-4.2,4.2V80
		c0,1.9,1.3,3.6,3.2,4v3h-8v-4.7c1.8-0.3,3.1-1.9,3.1-3.7V75c0-2.1-1.7-3.8-3.8-3.8h-0.6c-2.1,0-3.8,1.7-3.8,3.8v3.6
		c0,1.9,1.4,3.4,3.1,3.7V87h-6.1V69.3h23.5V87z M37,82.2c-1.2,0-2.2-1-2.2-2.2v-2.4c0-1.2,1-2.2,2.2-2.2s2.2,1,2.2,2.2V80
		C39.1,81.3,38.2,82.2,37,82.2z M24.8,67.4v-3.6H28v3.6H24.8z M30,67.4v-3.6h3.2v3.6H30z M33.3,61.8v-6.3h4.9v6.3H33.3z M38.3,63.8
		v3.6h-3.2v-3.6C35.1,63.8,38.3,63.8,38.3,63.8z M43.4,67.4h-3.2v-3.6h3.2V67.4z M43.4,61.8h-3.2v-7.3c0-0.6-0.4-1-1-1h-6.9
		c-0.6,0-1,0.4-1,1v7.3H19.9V28.2h23.5V61.8z M55.8,87H51v-8.8h4.8V87z M61.8,87h-4.1v-9.8c0-0.6-0.4-1-1-1h-6.8c-0.6,0-1,0.4-1,1
		V87h-3.6V28.3h1.1c0.6,0,1-0.4,1-1v-6.6c0-0.6-0.4-1-1-1h-3.9v-1.3h19.3v16.8h-1.1c-0.6,0-1,0.4-1,1s0.4,1,1,1h1.1v3.2h-1.1
		c-0.6,0-1,0.4-1,1V48c0,0.6,0.4,1,1,1h1.1V87L61.8,87z M87.3,87h-3.9v-3c1.8-0.5,3.2-2.1,3.2-4v-2.4c0-2.3-1.9-4.2-4.2-4.2
		s-4.2,1.9-4.2,4.2V80c0,1.9,1.3,3.6,3.2,4v3H63.8V48.9h23.5V87z M82.4,82.2c-1.2,0-2.2-1-2.2-2.2v-2.4c0-1.2,1-2.2,2.2-2.2
		s2.2,1,2.2,2.2V80C84.5,81.3,83.5,82.2,82.4,82.2z"/>
	<path class="st0" d="M24.8,49.6c0.6,0,1-0.4,1-1v-4.2c0-0.6-0.4-1-1-1s-1,0.4-1,1v4.2C23.8,49.1,24.2,49.6,24.8,49.6z"/>
	<path class="st0" d="M24.8,60.5c0.6,0,1-0.4,1-1v-4.2c0-0.6-0.4-1-1-1s-1,0.4-1,1v4.2C23.8,60,24.2,60.5,24.8,60.5z"/>
	<path class="st0" d="M31.6,49.6c0.6,0,1-0.4,1-1v-4.2c0-0.6-0.4-1-1-1c-0.6,0-1,0.4-1,1v4.2C30.7,49.1,31,49.6,31.6,49.6z"/>
	<path class="st0" d="M38.5,49.6c0.6,0,1-0.4,1-1v-4.2c0-0.6-0.4-1-1-1s-1,0.4-1,1v4.2C37.5,49.1,38,49.6,38.5,49.6z"/>
	<path class="st0" d="M24.8,38.7c0.6,0,1-0.4,1-1v-4.2c0-0.6-0.4-1-1-1s-1,0.4-1,1v4.2C23.8,38.2,24.2,38.7,24.8,38.7z"/>
	<path class="st0" d="M31.6,38.7c0.6,0,1-0.4,1-1v-4.2c0-0.6-0.4-1-1-1c-0.6,0-1,0.4-1,1v4.2C30.7,38.2,31,38.7,31.6,38.7z"/>
	<path class="st0" d="M38.5,38.7c0.6,0,1-0.4,1-1v-4.2c0-0.6-0.4-1-1-1s-1,0.4-1,1v4.2C37.5,38.2,38,38.7,38.5,38.7z"/>
	<path class="st0" d="M56.9,43.4c-0.6,0-1,0.4-1,1v4.2c0,0.6,0.4,1,1,1s1-0.4,1-1v-4.2C57.8,43.8,57.3,43.4,56.9,43.4z"/>
	<path class="st0" d="M56.9,32.6c-0.6,0-1,0.4-1,1v4.2c0,0.6,0.4,1,1,1s1-0.4,1-1v-4.2C57.8,33,57.3,32.6,56.9,32.6z"/>
	<path class="st0" d="M56.9,54.4c-0.6,0-1,0.4-1,1v4.2c0,0.6,0.4,1,1,1s1-0.4,1-1v-4.2C57.8,54.8,57.3,54.4,56.9,54.4z"/>
	<path class="st0" d="M56.9,65.3c-0.6,0-1,0.4-1,1v4.2c0,0.6,0.4,1,1,1s1-0.4,1-1v-4.2C57.8,65.8,57.3,65.3,56.9,65.3z"/>
	<path class="st0" d="M50.6,43.4c-0.6,0-1,0.4-1,1v4.2c0,0.6,0.4,1,1,1s1-0.4,1-1v-4.2C51.6,43.8,51.1,43.4,50.6,43.4z"/>
	<path class="st0" d="M50.6,32.6c-0.6,0-1,0.4-1,1v4.2c0,0.6,0.4,1,1,1s1-0.4,1-1v-4.2C51.6,33,51.1,32.6,50.6,32.6z"/>
	<path class="st0" d="M56.9,21.6c-0.6,0-1,0.4-1,1v4.2c0,0.6,0.4,1,1,1s1-0.4,1-1v-4.2C57.8,22.1,57.3,21.6,56.9,21.6z"/>
	<path class="st0" d="M50.6,21.6c-0.6,0-1,0.4-1,1v4.2c0,0.6,0.4,1,1,1s1-0.4,1-1v-4.2C51.6,22.1,51.1,21.6,50.6,21.6z"/>
	<path class="st0" d="M50.6,54.4c-0.6,0-1,0.4-1,1v4.2c0,0.6,0.4,1,1,1s1-0.4,1-1v-4.2C51.6,54.8,51.1,54.4,50.6,54.4z"/>
	<path class="st0" d="M50.6,65.3c-0.6,0-1,0.4-1,1v4.2c0,0.6,0.4,1,1,1s1-0.4,1-1v-4.2C51.6,65.8,51.1,65.3,50.6,65.3z"/>
	<path class="st0" d="M68.6,60.5c0.6,0,1-0.4,1-1v-4.2c0-0.6-0.4-1-1-1s-1,0.4-1,1v4.2C67.6,60,68.1,60.5,68.6,60.5z"/>
	<path class="st0" d="M75.5,60.5c0.6,0,1-0.4,1-1v-4.2c0-0.6-0.4-1-1-1s-1,0.4-1,1v4.2C74.5,60,74.9,60.5,75.5,60.5z"/>
	<path class="st0" d="M82.4,60.5c0.6,0,1-0.4,1-1v-4.2c0-0.6-0.4-1-1-1s-1,0.4-1,1v4.2C81.4,60,81.9,60.5,82.4,60.5z"/>
	<path class="st0" d="M68.6,71.4c0.6,0,1-0.4,1-1v-4.2c0-0.6-0.4-1-1-1s-1,0.4-1,1v4.2C67.6,71,68.1,71.4,68.6,71.4z"/>
	<path class="st0" d="M75.5,71.4c0.6,0,1-0.4,1-1v-4.2c0-0.6-0.4-1-1-1s-1,0.4-1,1v4.2C74.5,71,74.9,71.4,75.5,71.4z"/>
	<path class="st0" d="M75.5,82.4c0.6,0,1-0.4,1-1v-4.2c0-0.6-0.4-1-1-1s-1,0.4-1,1v4.2C74.5,82,74.9,82.4,75.5,82.4z"/>
	<path class="st0" d="M82.4,71.4c0.6,0,1-0.4,1-1v-4.2c0-0.6-0.4-1-1-1s-1,0.4-1,1v4.2C81.4,71,81.9,71.4,82.4,71.4z"/>
	<path class="st0" d="M68.6,82.4c0.6,0,1-0.4,1-1v-4.2c0-0.6-0.4-1-1-1s-1,0.4-1,1v4.2C67.6,82,68.1,82.4,68.6,82.4z"/>
</g>
</svg>
